
<svg width="512" height="512" viewBox="0 0 512 512" xmlns="http://www.w3.org/2000/svg">
  <defs>
    <radialGradient id="bgGrad" cx="50%" cy="50%" r="50%">
      <stop offset="0%" stop-color="#142c1d"/>
      <stop offset="60%" stop-color="#09180f"/>
      <stop offset="100%" stop-color="#040b07"/>
    </radialGradient>
    <linearGradient id="goldGrad" x1="0%" y1="0%" x2="100%" y2="100%">
      <stop offset="0%" stop-color="#ffe28a"/>
      <stop offset="50%" stop-color="#d4af37"/>
      <stop offset="100%" stop-color="#996515"/>
    </linearGradient>
    <linearGradient id="redGrad" x1="0%" y1="0%" x2="100%" y2="100%">
      <stop offset="0%" stop-color="#e74c3c"/>
      <stop offset="100%" stop-color="#962d22"/>
    </linearGradient>
    <filter id="glow" x="-20%" y="-20%" width="140%" height="140%">
      <feGaussianBlur stdDeviation="6" result="blur"/>
      <feComposite in="SourceGraphic" in2="blur" operator="over"/>
    </filter>
  </defs>

  <!-- Background -->
  <rect width="512" height="512" rx="100" fill="url(#bgGrad)"/>
  <rect width="496" height="496" x="8" y="8" rx="92" fill="none" stroke="url(#goldGrad)" stroke-width="4" opacity="0.6"/>

  <!-- Outer Wheel Rim -->
  <circle cx="256" cy="256" r="185" fill="#1b1b1b" stroke="url(#goldGrad)" stroke-width="12" filter="url(#glow)"/>
  
  <!-- Number Track Segments Ring -->
  <circle cx="256" cy="256" r="160" fill="none" stroke="#2a0808" stroke-width="26" stroke-dasharray="26 26"/>
  <circle cx="256" cy="256" r="160" fill="none" stroke="#0d0d0d" stroke-width="26" stroke-dasharray="26 26" stroke-dashoffset="26"/>
  
  <!-- Inner Ring -->
  <circle cx="256" cy="256" r="135" fill="#102517" stroke="url(#goldGrad)" stroke-width="6"/>

  <!-- Wheel Center Cone & Spokes -->
  <circle cx="256" cy="256" r="85" fill="#1e1e1e" stroke="url(#goldGrad)" stroke-width="4"/>
  <line x1="256" y1="171" x2="256" y2="341" stroke="url(#goldGrad)" stroke-width="4"/>
  <line x1="171" y1="256" x2="341" y2="256" stroke="url(#goldGrad)" stroke-width="4"/>
  <line x1="196" y1="196" x2="316" y2="316" stroke="url(#goldGrad)" stroke-width="4"/>
  <line x1="196" y1="316" x2="316" y2="196" stroke="url(#goldGrad)" stroke-width="4"/>

  <!-- Center Turret Brass -->
  <circle cx="256" cy="256" r="45" fill="url(#goldGrad)" stroke="#fff" stroke-width="2"/>
  <circle cx="256" cy="256" r="22" fill="#5c3d0b"/>
  <circle cx="256" cy="256" r="12" fill="url(#goldGrad)"/>

  <!-- Ivory Ball -->
  <circle cx="345" cy="205" r="16" fill="#ffffff" filter="url(#glow)"/>
  <circle cx="342" cy="202" r="5" fill="#ffffff"/>

  <!-- Vegas Lettering / Crown Banner -->
  <path d="M120 420 L392 420" stroke="url(#goldGrad)" stroke-width="3"/>
  <text x="256" y="455" font-family="'Cinzel', 'Playfair Display', serif" font-weight="900" font-size="34" fill="url(#goldGrad)" text-anchor="middle" letter-spacing="8">VEGAS</text>
  <text x="256" y="482" font-family="sans-serif" font-weight="700" font-size="16" fill="#ffffff" text-anchor="middle" letter-spacing="6" opacity="0.85">ROULETTE</text>
</svg>
